<svg xmlns="http://www.w3.org/2000/svg" width="980" height="650" viewBox="0 0 980 650">
<rect width="100%" height="100%" fill="white"/>
<text x="490.0" y="34" text-anchor="middle" font-family="sans-serif" font-size="22" font-weight="700">DeepSense adaptive Top-K: coverage–overhead trade-off</text>
<line x1="110.00" y1="70" x2="110.00" y2="545" stroke="#e5e7eb"/>
<text x="110.00" y="569" text-anchor="middle" font-family="sans-serif" font-size="13">0.05974</text>
<line x1="110" y1="545.00" x2="935" y2="545.00" stroke="#e5e7eb"/>
<text x="98" y="550.00" text-anchor="end" font-family="sans-serif" font-size="13">0.9409</text>
<line x1="275.00" y1="70" x2="275.00" y2="545" stroke="#e5e7eb"/>
<text x="275.00" y="569" text-anchor="middle" font-family="sans-serif" font-size="13">0.07122</text>
<line x1="110" y1="450.00" x2="935" y2="450.00" stroke="#e5e7eb"/>
<text x="98" y="455.00" text-anchor="end" font-family="sans-serif" font-size="13">0.9517</text>
<line x1="440.00" y1="70" x2="440.00" y2="545" stroke="#e5e7eb"/>
<text x="440.00" y="569" text-anchor="middle" font-family="sans-serif" font-size="13">0.0827</text>
<line x1="110" y1="355.00" x2="935" y2="355.00" stroke="#e5e7eb"/>
<text x="98" y="360.00" text-anchor="end" font-family="sans-serif" font-size="13">0.9626</text>
<line x1="605.00" y1="70" x2="605.00" y2="545" stroke="#e5e7eb"/>
<text x="605.00" y="569" text-anchor="middle" font-family="sans-serif" font-size="13">0.09418</text>
<line x1="110" y1="260.00" x2="935" y2="260.00" stroke="#e5e7eb"/>
<text x="98" y="265.00" text-anchor="end" font-family="sans-serif" font-size="13">0.9734</text>
<line x1="770.00" y1="70" x2="770.00" y2="545" stroke="#e5e7eb"/>
<text x="770.00" y="569" text-anchor="middle" font-family="sans-serif" font-size="13">0.1057</text>
<line x1="110" y1="165.00" x2="935" y2="165.00" stroke="#e5e7eb"/>
<text x="98" y="170.00" text-anchor="end" font-family="sans-serif" font-size="13">0.9842</text>
<line x1="935.00" y1="70" x2="935.00" y2="545" stroke="#e5e7eb"/>
<text x="935.00" y="569" text-anchor="middle" font-family="sans-serif" font-size="13">0.1171</text>
<line x1="110" y1="70.00" x2="935" y2="70.00" stroke="#e5e7eb"/>
<text x="98" y="75.00" text-anchor="end" font-family="sans-serif" font-size="13">0.995</text>
<line x1="110" y1="545" x2="935" y2="545" stroke="black" stroke-width="1.5"/>
<line x1="110" y1="70" x2="110" y2="545" stroke="black" stroke-width="1.5"/>
<text x="522.5" y="605" text-anchor="middle" font-family="sans-serif" font-size="16">Probing overhead (K/64)</text>
<text transform="translate(27 307.5) rotate(-90)" text-anchor="middle" font-family="sans-serif" font-size="16">Top-K empirical coverage</text>
<line x1="149.67" y1="512.24" x2="184.12" y2="512.24" stroke="#6b7280" stroke-width="1.5"/>
<line x1="166.90" y1="640.20" x2="166.90" y2="392.81" stroke="#6b7280" stroke-width="1.5"/>
<circle cx="166.90" cy="512.24" r="6.5" fill="#111827"/>
<text x="174.90" y="504.24" font-family="sans-serif" font-size="13">q=0.90</text>
<line x1="358.11" y1="298.97" x2="401.49" y2="298.97" stroke="#6b7280" stroke-width="1.5"/>
<line x1="379.47" y1="401.34" x2="379.47" y2="205.13" stroke="#6b7280" stroke-width="1.5"/>
<circle cx="379.47" cy="298.97" r="6.5" fill="#111827"/>
<text x="387.47" y="316.97" font-family="sans-serif" font-size="13">q=0.95</text>
<line x1="567.63" y1="171.01" x2="618.43" y2="171.01" stroke="#6b7280" stroke-width="1.5"/>
<line x1="592.92" y1="247.78" x2="592.92" y2="102.76" stroke="#6b7280" stroke-width="1.5"/>
<circle cx="592.92" cy="171.01" r="6.5" fill="#111827"/>
<text x="600.92" y="163.01" font-family="sans-serif" font-size="13">q=0.975</text>
<line x1="848.02" y1="102.76" x2="908.63" y2="102.76" stroke="#6b7280" stroke-width="1.5"/>
<line x1="878.10" y1="153.94" x2="878.10" y2="60.10" stroke="#6b7280" stroke-width="1.5"/>
<circle cx="878.10" cy="102.76" r="6.5" fill="#111827"/>
<text x="886.10" y="120.76" font-family="sans-serif" font-size="13">q=0.99</text>
<text x="110" y="635" font-family="sans-serif" font-size="12">95% paired scenario-stratified bootstrap CIs; 10,000 replicates; formal dev_test only.</text>
</svg>
